<svg id="Layer_1" data-name="Layer 1" xmlns="http://www.w3.org/2000/svg" viewBox="0 0 164 164"><defs><style>.cls-1{fill:#fff;}.cls-2{font-size:101px;font-family:MyriadPro-Regular, Myriad Pro;}</style></defs><rect class="cls-1" x="6.5" y="6.5" width="151" height="151" rx="37"/><path d="M348.5,184A30.53,30.53,0,0,1,379,214.5v77A30.53,30.53,0,0,1,348.5,322h-77A30.53,30.53,0,0,1,241,291.5v-77A30.53,30.53,0,0,1,271.5,184h77m0-13h-77A43.51,43.51,0,0,0,228,214.5v77A43.51,43.51,0,0,0,271.5,335h77A43.51,43.51,0,0,0,392,291.5v-77A43.51,43.51,0,0,0,348.5,171Z" transform="translate(-228 -171)"/><text class="cls-2" transform="translate(29 112.71)">1P</text></svg>