<svg id="Layer_1" data-name="Layer 1" xmlns="http://www.w3.org/2000/svg" viewBox="0 0 164 164"><defs><style>.cls-1{fill:#fff;}.cls-2{font-size:101px;font-family:MyriadPro-Regular, Myriad Pro;}</style></defs><rect class="cls-1" x="6.5" y="6.5" width="151" height="151" rx="37"/><path d="M705.21,315.5a30.53,30.53,0,0,1,30.5,30.5v77a30.53,30.53,0,0,1-30.5,30.5h-77a30.53,30.53,0,0,1-30.5-30.5V346a30.53,30.53,0,0,1,30.5-30.5h77m0-13h-77a43.5,43.5,0,0,0-43.5,43.5v77a43.5,43.5,0,0,0,43.5,43.5h77a43.51,43.51,0,0,0,43.5-43.5V346a43.51,43.51,0,0,0-43.5-43.5Z" transform="translate(-584.71 -302.5)"/><text class="cls-2" transform="translate(29 112.71)">2P</text></svg>